<?xml version="1.0" encoding="UTF-8" standalone="no"?>
<!DOCTYPE svg PUBLIC "-//W3C//DTD SVG 1.1//EN" "http://www.w3.org/Graphics/SVG/1.1/DTD/svg11.dtd">
<svg width="100%" height="100%" viewBox="0 0 113 140" version="1.1" xmlns="http://www.w3.org/2000/svg" xmlns:xlink="http://www.w3.org/1999/xlink" xml:space="preserve" xmlns:serif="http://www.serif.com/" style="fill-rule:evenodd;clip-rule:evenodd;stroke-linejoin:round;stroke-miterlimit:2;">
    <g id="Layer_2">
        <g id="Layer_11">
            <path d="M75.92,29.92C73.806,28.136 71.954,26.062 70.42,23.76C71.953,26.063 73.805,28.137 75.92,29.92Z" style="fill:none;fill-rule:nonzero;"/>
            <path d="M75.92,29.92C76.846,29.466 77.742,28.952 78.6,28.38C85.14,23.98 89.6,19.38 91.07,16.17C93,12 93.91,1.72 90.9,2C87.48,2.27 90.59,8.94 85.8,14.15C82.93,17.27 78.17,21.02 70.43,23.79C71.963,26.081 73.811,28.144 75.92,29.92Z" style="fill:rgb(96,57,19);fill-rule:nonzero;"/>
            <path d="M20.32,72.08L20.07,71.98L20.32,72.08L20.32,72.02C27.82,48.74 39.46,42.02 51.37,37.95C53.71,37.15 57.09,36.12 59.51,35.4C57.848,32.906 56.444,30.249 55.32,27.47L55.19,27.13L53.12,27.34C49.886,27.622 46.678,28.14 43.52,28.89C39.379,29.871 35.355,31.296 31.52,33.14L30.65,33.57L30.49,33.65C18.375,39.895 8.927,50.327 3.91,63C0.45,71.9 17.71,79.8 20.32,72.08Z" style="fill:url(#_Linear1);fill-rule:nonzero;"/>
            <path d="M18.4,84C18.396,79.949 19.044,75.924 20.32,72.08C17.71,79.8 0.45,71.9 3.91,63C1.325,69.559 -0.002,76.546 -0.002,83.596C-0.002,114.095 24.834,139.309 55.33,139.77L54.88,121.77C34.646,121.089 18.378,104.245 18.4,84Z" style="fill:rgb(239,163,32);fill-rule:nonzero;"/>
            <path d="M80.71,33.11L80.31,32.91L80.71,33.11Z" style="fill:rgb(150,110,42);fill-rule:nonzero;"/>
            <path d="M80.71,33.11L80.31,32.91L80.71,33.11Z" style="fill:url(#_Linear2);fill-rule:nonzero;"/>
            <path d="M80.9,33.2L80.71,33.11L80.31,32.91L80.71,33.11L80.85,33.17C79.103,32.25 77.451,31.158 75.92,29.91C73.805,28.127 71.953,26.053 70.42,23.75C67.578,19.425 65.793,14.492 65.21,9.35C64.72,5.878 62.438,2.908 59.21,1.54C55.982,0.172 51.87,-1.3 39.81,0.73C27.75,2.76 23.71,3.87 18.13,6C12.55,8.13 14.8,12.57 15.38,13.74C15.681,14.413 16.039,15.058 16.45,15.67C16.399,14.624 16.853,13.615 17.67,12.96C18.56,12.47 19.39,13.17 20.26,13.91C20.981,14.598 21.826,15.145 22.75,15.52C25.75,16.46 29.61,16.15 32.42,15.91C33.474,15.812 34.52,15.641 35.55,15.4C37.329,14.946 39.167,14.768 41,14.87C42.271,15.015 43.526,15.276 44.75,15.65C49.62,16.95 53.19,17.55 54.75,13.4C54.931,13.102 55.256,12.919 55.605,12.919C56.153,12.919 56.605,13.371 56.605,13.919C56.605,13.976 56.6,14.034 56.59,14.09C54.28,20.23 48.24,18.62 44.24,17.55C43.14,17.213 42.012,16.972 40.87,16.83C39.213,16.721 37.55,16.873 35.94,17.28C34.827,17.538 33.698,17.718 32.56,17.82C29.56,18.07 25.56,18.4 22.14,17.34C20.962,16.888 19.885,16.209 18.97,15.34L18.52,15C18.389,15.773 18.352,16.558 18.41,17.34C18.571,17.938 18.922,18.468 19.41,18.85C20.41,19.68 25.74,20.75 27.93,20.85C30.12,20.95 50.28,24.58 54.16,23.85C54.16,23.85 54.53,25.11 55.25,27.08L55.38,27.42C56.18,29.58 58.7,32.11 60.28,35.14L59.57,35.35C61.826,38.946 64.58,42.205 67.75,45.03C70.92,47.855 70.91,47.73 73.38,49.64C77.62,53 93.91,68.71 93.91,84C93.91,104.715 76.865,121.76 56.15,121.76L54.87,121.76L55.32,139.76L56.15,139.76C86.953,139.76 112.3,114.413 112.3,83.61C112.31,61.48 100.13,44.73 80.9,33.2Z" style="fill:url(#_Linear3);fill-rule:nonzero;"/>
            <path d="M60.25,35.19C58.67,32.19 56.15,29.63 55.35,27.47C56.474,30.249 57.878,32.906 59.54,35.4L60.25,35.19Z" style="fill:url(#_Linear4);fill-rule:nonzero;"/>
            <path d="M60.25,35.19C58.67,32.19 56.15,29.63 55.35,27.47C56.474,30.249 57.878,32.906 59.54,35.4L60.25,35.19Z" style="fill:url(#_Linear5);fill-rule:nonzero;"/>
            <path d="M80.9,33.2L80.76,33.14L80.9,33.2Z" style="fill:rgb(0,148,68);fill-rule:nonzero;"/>
            <g transform="matrix(0.872922,-0.48786,0.48786,0.872922,-32.58,19.07)">
                <path d="M20.32,72.08Z" style="fill:rgb(150,110,42);"/>
            </g>
            <path d="M20.07,72L20.32,72.1L20.07,72Z" style="fill:rgb(150,110,42);fill-rule:nonzero;"/>
            <path d="M18.52,15L18.99,15.39C19.905,16.259 20.982,16.938 22.16,17.39C25.54,18.45 29.61,18.11 32.58,17.87C33.732,17.754 34.875,17.556 36,17.28C37.61,16.873 39.273,16.721 40.93,16.83C42.072,16.972 43.2,17.213 44.3,17.55C48.3,18.62 54.3,20.23 56.65,14.09C56.66,14.034 56.665,13.976 56.665,13.919C56.665,13.371 56.213,12.919 55.665,12.919C55.316,12.919 54.991,13.102 54.81,13.4C53.25,17.55 49.68,16.95 44.81,15.65C43.567,15.272 42.291,15.011 41,14.87C39.162,14.753 37.318,14.918 35.53,15.36C34.5,15.601 33.454,15.772 32.4,15.87C29.59,16.1 25.74,16.42 22.73,15.48C21.806,15.105 20.961,14.558 20.24,13.87C19.36,13.13 18.54,12.44 17.65,12.92C16.833,13.575 16.379,14.584 16.43,15.63C16.927,16.336 17.599,16.901 18.38,17.27C18.337,16.51 18.384,15.749 18.52,15Z" style="fill:white;fill-rule:nonzero;"/>
            <g transform="matrix(0.996623,-0.0821125,0.0821125,0.996623,-0.43,3.42)">
                <circle cx="41.38" cy="6.91" r="3.62" style="fill:white;"/>
            </g>
        </g>
    </g>
    <defs>
        <linearGradient id="_Linear1" x1="0" y1="0" x2="1" y2="0" gradientUnits="userSpaceOnUse" gradientTransform="matrix(74.8,-43.86,43.86,74.8,11.44,61.64)"><stop offset="0" style="stop-color:rgb(239,163,32);stop-opacity:1"/><stop offset="0.32" style="stop-color:rgb(239,163,32);stop-opacity:1"/><stop offset="0.38" style="stop-color:rgb(229,156,31);stop-opacity:1"/><stop offset="0.46" style="stop-color:rgb(204,137,29);stop-opacity:1"/><stop offset="0.57" style="stop-color:rgb(162,106,25);stop-opacity:1"/><stop offset="0.7" style="stop-color:rgb(104,63,20);stop-opacity:1"/><stop offset="0.72" style="stop-color:rgb(96,57,19);stop-opacity:1"/><stop offset="1" style="stop-color:rgb(96,57,19);stop-opacity:1"/></linearGradient>
        <linearGradient id="_Linear2" x1="0" y1="0" x2="1" y2="0" gradientUnits="userSpaceOnUse" gradientTransform="matrix(-50.9,-67.14,67.14,-50.9,99.39,57.91)"><stop offset="0" style="stop-color:rgb(239,163,32);stop-opacity:1"/><stop offset="0.41" style="stop-color:rgb(239,163,32);stop-opacity:1"/><stop offset="0.49" style="stop-color:rgb(190,151,37);stop-opacity:1"/><stop offset="0.8" style="stop-color:rgb(0,104,56);stop-opacity:1"/><stop offset="1" style="stop-color:rgb(0,104,56);stop-opacity:1"/></linearGradient>
        <linearGradient id="_Linear3" x1="0" y1="0" x2="1" y2="0" gradientUnits="userSpaceOnUse" gradientTransform="matrix(104.7,88.47,-88.47,104.7,0.92,22.74)"><stop offset="0" style="stop-color:rgb(57,181,74);stop-opacity:1"/><stop offset="0.19" style="stop-color:rgb(57,181,74);stop-opacity:1"/><stop offset="0.29" style="stop-color:rgb(115,175,61);stop-opacity:1"/><stop offset="0.39" style="stop-color:rgb(168,170,48);stop-opacity:1"/><stop offset="0.48" style="stop-color:rgb(207,166,39);stop-opacity:1"/><stop offset="0.55" style="stop-color:rgb(230,164,34);stop-opacity:1"/><stop offset="0.59" style="stop-color:rgb(239,163,32);stop-opacity:1"/><stop offset="1" style="stop-color:rgb(239,163,32);stop-opacity:1"/></linearGradient>
        <linearGradient id="_Linear4" x1="0" y1="0" x2="1" y2="0" gradientUnits="userSpaceOnUse" gradientTransform="matrix(366.471,-347.889,347.889,366.471,104.742,497.878)"><stop offset="0" style="stop-color:rgb(239,163,32);stop-opacity:1"/><stop offset="0.32" style="stop-color:rgb(239,163,32);stop-opacity:1"/><stop offset="0.38" style="stop-color:rgb(229,156,31);stop-opacity:1"/><stop offset="0.46" style="stop-color:rgb(204,137,29);stop-opacity:1"/><stop offset="0.57" style="stop-color:rgb(162,106,25);stop-opacity:1"/><stop offset="0.7" style="stop-color:rgb(104,63,20);stop-opacity:1"/><stop offset="0.72" style="stop-color:rgb(96,57,19);stop-opacity:1"/><stop offset="1" style="stop-color:rgb(96,57,19);stop-opacity:1"/></linearGradient>
        <linearGradient id="_Linear5" x1="0" y1="0" x2="1" y2="0" gradientUnits="userSpaceOnUse" gradientTransform="matrix(513.03,701.567,-701.567,513.03,154.232,27.0735)"><stop offset="0" style="stop-color:rgb(57,181,74);stop-opacity:1"/><stop offset="0.19" style="stop-color:rgb(57,181,74);stop-opacity:1"/><stop offset="0.29" style="stop-color:rgb(115,175,61);stop-opacity:1"/><stop offset="0.39" style="stop-color:rgb(168,170,48);stop-opacity:1"/><stop offset="0.48" style="stop-color:rgb(207,166,39);stop-opacity:1"/><stop offset="0.55" style="stop-color:rgb(230,164,34);stop-opacity:1"/><stop offset="0.59" style="stop-color:rgb(239,163,32);stop-opacity:1"/><stop offset="1" style="stop-color:rgb(239,163,32);stop-opacity:1"/></linearGradient>
    </defs>
</svg>
